<?xml version="1.0" encoding="UTF-8"?>
<svg width="216px" height="127px" viewBox="0 0 216 127" version="1.1" xmlns="http://www.w3.org/2000/svg" xmlns:xlink="http://www.w3.org/1999/xlink">
    <!-- Generator: Sketch 47.1 (45422) - http://www.bohemiancoding.com/sketch -->
    <title>giin_logo_tagline</title>
    <desc>Created with Sketch.</desc>
    <defs></defs>
    <g id="Page-1" stroke="none" stroke-width="1" fill="none" fill-rule="evenodd">
        <g id="giin_logo_tagline">
            <g id="giin">
                <g id="Group-4" transform="translate(109.000000, 0.000000)" fill="#FBCD20">
                    <path d="M21.913,31.338 C19.2,35.217 17.284,39.416 16.125,43.736 L19.167,44.553 C20.236,40.575 21.997,36.714 24.498,33.144 C35.975,16.733 58.587,12.737 75,24.219 C91.412,35.702 95.41,58.312 83.928,74.723 C72.446,91.133 49.833,95.131 33.423,83.649 L31.614,86.231 C49.454,98.713 74.031,94.368 86.51,76.531 C98.992,58.693 94.646,34.115 76.805,21.635 C58.967,9.154 34.391,13.5 21.913,31.338" id="Fill-1"></path>
                    <path d="M1.064,57.393 C1.428,62.536 2.532,67.448 4.24,72.049 L7.622,70.765 C6.036,66.487 5.01,61.92 4.671,57.137 C2.747,30.037 23.156,6.509 50.253,4.585 C77.354,2.661 100.881,23.069 102.808,50.17 C104.731,77.266 84.325,100.795 57.223,102.721 C52.907,103.026 48.688,102.76 44.625,102.001 L43.89,105.537 C48.268,106.366 52.825,106.658 57.479,106.327 C86.569,104.26 108.479,79.003 106.413,49.913 C104.346,20.822 79.088,-1.088 50,0.978 C20.909,3.044 -1.002,28.301 1.064,57.393 Z" id="Fill-3"></path>
                    <path d="M67.145,67.605 C63.661,71.071 58.856,73.216 53.552,73.216 C42.903,73.216 34.274,64.582 34.274,53.934 C34.274,43.284 42.903,34.651 53.552,34.651 C64.203,34.651 72.835,43.284 72.835,53.934 C72.835,53.96 72.833,53.986 72.833,54.012 L74.973,54.012 C74.973,53.986 74.977,53.96 74.977,53.934 C74.977,42.102 65.385,32.509 53.552,32.509 C41.721,32.509 32.129,42.102 32.129,53.934 C32.129,65.766 41.721,75.357 53.552,75.357 C59.449,75.357 64.788,72.972 68.663,69.12 L67.145,67.605" id="Fill-6"></path>
                    <path d="M53.739,7.71 C28.366,7.71 7.796,28.279 7.796,53.651 C7.796,55.385 7.901,57.094 8.088,58.779 L11.208,58.387 C11.038,56.831 10.94,55.252 10.94,53.653 C10.94,30.015 30.103,10.856 53.739,10.856 C77.375,10.856 96.536,30.015 96.536,53.653 C96.536,77.287 77.375,96.45 53.739,96.45 C47.92,96.45 42.376,95.283 37.323,93.181 L36.063,96.067 C41.506,98.337 47.477,99.595 53.739,99.595 C79.112,99.595 99.68,79.024 99.68,53.651 C99.68,28.279 79.112,7.71 53.739,7.71" id="Fill-5"></path>
                    <path d="M48.944,86.534 C66.999,89.087 83.769,76.472 86.321,58.415 C88.875,40.36 76.266,23.592 58.208,21.036 C40.145,18.485 23.38,31.101 20.824,49.155 L22.792,49.436 C25.192,32.462 40.955,20.604 57.924,23.001 C74.896,25.406 86.753,41.163 84.356,58.135 C81.957,75.114 66.194,86.966 49.22,84.567 L48.944,86.534" id="Fill-51"></path>
                    <path d="M40.142,78.917 C46.58,82.222 54.277,83.081 61.695,80.697 C76.529,75.929 84.72,59.975 79.956,45.142 C75.188,30.305 59.233,22.114 44.4,26.882 L45.008,28.773 C58.797,24.34 73.631,31.959 78.066,45.749 C82.496,59.543 74.879,74.369 61.088,78.803 C47.294,83.236 32.464,75.621 28.032,61.826 L26.137,62.433 C28.524,69.851 33.706,75.61 40.142,78.917" id="Fill-52"></path>
                    <path d="M66.028,64.519 C67.857,62.361 69.097,59.752 69.618,56.89 C70.393,52.599 69.46,48.26 66.972,44.674 L65.339,45.804 C67.522,48.955 68.346,52.764 67.661,56.539 C66.972,60.306 64.862,63.587 61.714,65.766 C58.567,67.949 54.754,68.773 50.984,68.088 C47.216,67.402 43.94,65.292 41.753,62.144 C37.252,55.642 38.875,46.688 45.381,42.18 L44.25,40.55 C36.846,45.681 34.994,55.876 40.124,63.275 C42.607,66.857 46.336,69.262 50.629,70.044 C54.923,70.822 59.262,69.881 62.849,67.399 C64.047,66.571 65.109,65.6 66.028,64.519" id="Fill-53"></path>
                </g>
                <path d="M0,78.202 C0,62.713 12.496,53.508 25.293,53.508 C31.578,53.508 36.742,54.931 40.332,57.176 L39.285,61.59 C35.769,59.345 30.98,57.849 25.816,57.849 C14.966,57.849 5.09,65.556 5.09,78.276 C5.09,90.85 14.817,98.48 25.89,98.48 C31.204,98.48 35.769,96.985 38.163,95.264 L38.163,83.441 L25.592,83.441 L25.592,79.324 L43.026,79.324 L43.026,97.732 C38.762,101.026 32.851,102.896 25.592,102.896 C12.272,102.896 0,93.467 0,78.202 Z" id="Fill-47" fill="#00374E"></path>
                <polygon id="Fill-48" fill="#00374E" points="53.803 102.071 58.816 102.071 58.816 54.332 53.803 54.332"></polygon>
                <polygon id="Fill-49" fill="#00374E" points="71.688 102.071 76.701 102.071 76.701 54.332 71.688 54.332"></polygon>
                <path d="M104.987,76.182 C100.946,71.542 96.605,66.38 93.314,62.414 L93.163,62.488 C93.314,66.903 93.314,71.393 93.314,75.733 L93.314,102.071 L88.299,102.071 L88.299,54.332 L91.816,54.332 L113.964,79.699 C117.258,83.441 121.67,88.603 124.815,92.495 L124.964,92.42 C124.815,88.154 124.815,83.815 124.815,79.774 L124.815,54.332 L129.831,54.332 L129.831,103.121 L128.482,103.121 L104.987,76.182 Z" id="Fill-50" fill="#00374E"></path>
            </g>
            <g id="Group" transform="translate(2.000000, 116.000000)" fill="#00374E">
                <path d="M4.304,8.974 C2.223,8.974 0.068,7.585 0.068,4.969 C0.068,2.294 2.308,0.95 4.231,0.95 C5.297,0.95 6.156,1.206 6.725,1.566 L6.507,2.582 C5.938,2.221 5.176,1.966 4.364,1.966 C2.852,1.966 1.254,2.96 1.254,4.979 C1.254,6.977 2.803,7.958 4.376,7.958 C5.091,7.958 5.648,7.811 6.011,7.558 L6.011,5.948 L4.231,5.948 L4.231,5.006 L7.125,5.006 L7.125,8.139 C6.386,8.734 5.454,8.974 4.304,8.974" id="Fill-8"></path>
                <polyline id="Fill-9" points="8.915 8.828 8.915 1.107 10.089 1.107 10.089 7.824 13.489 7.824 13.489 8.828 8.915 8.828"></polyline>
                <path d="M18.127,1.966 C16.698,1.966 15.222,3.044 15.222,4.956 C15.222,6.87 16.698,7.958 18.127,7.958 C19.53,7.958 21.031,6.87 21.031,4.956 C21.031,3.044 19.53,1.966 18.127,1.966 Z M18.127,8.974 C16.069,8.974 14.035,7.461 14.035,4.956 C14.035,2.475 16.069,0.95 18.127,0.95 C20.184,0.95 22.218,2.475 22.218,4.956 C22.218,7.461 20.184,8.974 18.127,8.974 L18.127,8.974 Z" id="Fill-10"></path>
                <path d="M26.262,5.019 L25.161,5.019 L25.161,7.731 L26.262,7.731 C27.073,7.731 27.835,7.318 27.835,6.373 C27.835,5.454 27.073,5.019 26.262,5.019 Z M25.96,1.992 L25.161,1.992 L25.161,4.025 L25.96,4.025 C26.589,4.025 27.134,3.736 27.134,3.021 C27.134,2.297 26.589,1.992 25.96,1.992 Z M26.504,8.721 L24,8.721 L24,1 L26.153,1 C27.182,1 28.319,1.667 28.319,3.021 C28.319,3.589 28.053,4.184 27.606,4.379 C28.319,4.583 29.034,5.382 29.034,6.373 C29.034,7.971 27.703,8.721 26.504,8.721 L26.504,8.721 Z" id="Fill-12"></path>
                <path d="M33.826,4.013 C33.716,3.761 33.595,3.397 33.498,3.072 L33.474,3.072 C33.389,3.397 33.256,3.761 33.147,4.013 L32.385,5.904 L34.588,5.904 L33.826,4.013 Z M35.822,8.83 L34.987,6.833 L31.985,6.833 L31.15,8.83 L30,8.83 L33.293,1 L33.716,1 L37.009,8.83 L35.822,8.83 L35.822,8.83 Z" id="Fill-13"></path>
                <polyline id="Fill-14" points="38 8.721 38 1 39.173 1 39.173 7.717 42.574 7.717 42.574 8.721 38 8.721"></polyline>
                <polygon id="Fill-15" points="48 8.721 49.173 8.721 49.173 1 48 1"></polygon>
                <path d="M58.722,8.721 L58.407,5.236 C58.36,4.717 58.31,4.051 58.286,3.482 L58.263,3.482 C58.02,4.025 57.645,4.779 57.39,5.272 L55.599,8.782 L55.164,8.782 L53.348,5.272 C53.082,4.766 52.755,4.074 52.489,3.505 L52.465,3.505 C52.441,4.101 52.38,4.779 52.344,5.236 L52.041,8.721 L51,8.721 L51.666,1 L52.392,1 L54.45,4.97 C54.765,5.574 55.164,6.363 55.418,6.955 L55.442,6.955 C55.685,6.363 56.06,5.612 56.387,4.97 L58.419,1 L59.146,1 L59.835,8.721 L58.722,8.721" id="Fill-16"></path>
                <path d="M64.117,1.992 L63.161,1.992 L63.161,4.34 L64.117,4.34 C64.807,4.34 65.448,3.979 65.448,3.167 C65.448,2.368 64.807,1.992 64.117,1.992 Z M64.323,5.333 L63.161,5.333 L63.161,8.721 L62,8.721 L62,1 L64.323,1 C65.413,1 66.647,1.702 66.647,3.167 C66.647,4.632 65.413,5.333 64.323,5.333 L64.323,5.333 Z" id="Fill-17"></path>
                <path d="M70.251,4.011 C70.141,3.759 70.02,3.395 69.923,3.07 L69.899,3.07 C69.815,3.395 69.682,3.759 69.573,4.011 L68.81,5.902 L71.013,5.902 L70.251,4.011 Z M72.247,8.828 L71.412,6.831 L68.411,6.831 L67.575,8.828 L66.425,8.828 L69.717,0.998 L70.141,0.998 L73.434,8.828 L72.247,8.828 L72.247,8.828 Z" id="Fill-18"></path>
                <path d="M80.319,2.475 C79.944,2.231 79.182,1.966 78.382,1.966 C76.87,1.966 75.272,2.946 75.272,4.969 C75.272,6.964 76.834,7.958 78.382,7.958 C79.302,7.958 80.028,7.763 80.512,7.474 L80.27,8.6 C79.786,8.853 79.241,8.974 78.25,8.974 C76.301,8.974 74.085,7.607 74.085,4.969 C74.085,2.294 76.325,0.95 78.25,0.95 C79.314,0.95 80.053,1.192 80.524,1.459 L80.319,2.475" id="Fill-20"></path>
                <polyline id="Fill-22" points="84.654 2.005 84.654 8.721 83.481 8.721 83.481 2.005 81 2.005 81 1 87.136 1 87.136 2.005 84.654 2.005"></polyline>
                <polygon id="Fill-23" points="92.99 8.828 94.164 8.828 94.164 1.107 92.99 1.107"></polygon>
                <path d="M102.793,9 L99.174,5.041 C98.594,4.411 97.928,3.638 97.395,3.008 L97.371,3.021 C97.395,3.722 97.395,4.375 97.395,4.956 L97.395,8.828 L96.222,8.828 L96.222,1.107 L97.033,1.107 L100.349,4.739 C100.796,5.236 101.499,6.009 101.97,6.591 L101.995,6.578 C101.97,5.986 101.97,5.32 101.97,4.761 L101.97,1.107 L103.145,1.107 L103.145,9 L102.793,9" id="Fill-25"></path>
                <path d="M107.452,8.832 L107.074,8.832 L104,1 L105.236,1 L106.661,4.681 C106.869,5.213 107.101,5.867 107.305,6.52 L107.328,6.52 C107.535,5.879 107.753,5.236 107.971,4.681 L109.399,1 L110.514,1 L107.452,8.832" id="Fill-27"></path>
                <polyline id="Fill-28" points="112.076 8.828 112.076 1.107 116.241 1.107 116.241 2.112 113.249 2.112 113.249 4.447 115.755 4.447 115.755 5.453 113.249 5.453 113.249 7.824 116.662 7.824 116.662 8.828 112.076 8.828"></polyline>
                <path d="M119.858,8.974 C119.023,8.974 118.26,8.72 117.861,8.455 L117.594,7.172 C118.332,7.692 119.085,7.958 119.919,7.958 C120.777,7.958 121.345,7.474 121.345,6.76 C121.345,6.093 120.936,5.646 120.004,5.343 C118.624,4.895 117.896,4.122 117.896,3.057 C117.896,1.978 118.696,0.95 120.342,0.95 C121.105,0.95 121.745,1.192 122.024,1.397 L121.793,2.365 C121.528,2.174 120.922,1.92 120.293,1.92 C119.507,1.92 119.023,2.404 119.023,2.972 C119.023,3.479 119.458,3.891 120.27,4.172 C121.611,4.628 122.521,5.343 122.521,6.653 C122.521,8.029 121.601,8.974 119.858,8.974" id="Fill-30"></path>
                <polyline id="Fill-32" points="126.655 2.005 126.655 8.721 125.478 8.721 125.478 2.005 123 2.005 123 1 129.136 1 129.136 2.005 126.655 2.005"></polyline>
                <polygon id="Fill-33" points="130.534 8.828 131.707 8.828 131.707 1.107 130.534 1.107"></polygon>
                <path d="M140.336,9 L136.718,5.041 C136.136,4.411 135.47,3.638 134.938,3.008 L134.916,3.021 C134.938,3.722 134.938,4.375 134.938,4.956 L134.938,8.828 L133.765,8.828 L133.765,1.107 L134.575,1.107 L137.889,4.739 C138.338,5.236 139.04,6.009 139.515,6.591 L139.537,6.578 C139.515,5.986 139.515,5.32 139.515,4.761 L139.515,1.107 L140.686,1.107 L140.686,9 L140.336,9" id="Fill-35"></path>
                <path d="M146.497,8.974 C144.416,8.974 142.258,7.585 142.258,4.969 C142.258,2.294 144.5,0.95 146.422,0.95 C147.488,0.95 148.349,1.206 148.917,1.566 L148.7,2.582 C148.13,2.221 147.368,1.966 146.556,1.966 C145.045,1.966 143.447,2.96 143.447,4.979 C143.447,6.977 144.997,7.958 146.569,7.958 C147.283,7.958 147.838,7.811 148.203,7.558 L148.203,5.948 L146.422,5.948 L146.422,5.006 L149.316,5.006 L149.316,8.139 C148.58,8.734 147.647,8.974 146.497,8.974" id="Fill-36"></path>
                <path d="M161.976,9 L158.355,5.041 C157.777,4.411 157.111,3.638 156.579,3.008 L156.552,3.021 C156.579,3.722 156.579,4.375 156.579,4.956 L156.579,8.828 L155.403,8.828 L155.403,1.107 L156.214,1.107 L159.531,4.739 C159.978,5.236 160.681,6.009 161.151,6.591 L161.177,6.578 C161.151,5.986 161.151,5.32 161.151,4.761 L161.151,1.107 L162.328,1.107 L162.328,9 L161.976,9" id="Fill-37"></path>
                <polyline id="Fill-39" points="164 8.721 164 1 168.163 1 168.163 2.005 165.174 2.005 165.174 4.34 167.679 4.34 167.679 5.346 165.174 5.346 165.174 7.717 168.586 7.717 168.586 8.721 164 8.721"></polyline>
                <polyline id="Fill-40" points="172.653 2.005 172.653 8.721 171.478 8.721 171.478 2.005 169 2.005 169 1 175.134 1 175.134 2.005 172.653 2.005"></polyline>
                <path d="M184.281,8.939 L183.881,8.939 L182.439,4.81 C182.234,4.219 182.017,3.576 181.774,2.742 L181.75,2.742 C181.506,3.576 181.289,4.229 181.085,4.81 L179.643,8.939 L179.243,8.939 L176.508,1.107 L177.684,1.107 L178.932,4.664 C179.109,5.175 179.341,5.804 179.5,6.434 L179.522,6.434 C179.692,5.804 179.9,5.187 180.081,4.664 L181.315,1.107 L182.319,1.107 L183.567,4.664 C183.734,5.162 183.939,5.804 184.112,6.434 L184.135,6.434 C184.291,5.814 184.535,5.149 184.702,4.664 L185.95,1.107 L187.028,1.107 L184.281,8.939" id="Fill-41"></path>
                <path d="M191.783,1.966 C190.354,1.966 188.879,3.044 188.879,4.956 C188.879,6.87 190.354,7.958 191.783,7.958 C193.186,7.958 194.687,6.87 194.687,4.956 C194.687,3.044 193.186,1.966 191.783,1.966 Z M191.783,8.974 C189.723,8.974 187.691,7.461 187.691,4.956 C187.691,2.475 189.723,0.95 191.783,0.95 C193.841,0.95 195.875,2.475 195.875,4.956 C195.875,7.461 193.841,8.974 191.783,8.974 L191.783,8.974 Z" id="Fill-43"></path>
                <path d="M199.237,1.992 L198.162,1.992 L198.162,4.34 L199.237,4.34 C199.929,4.34 200.568,3.979 200.568,3.167 C200.568,2.368 199.929,1.992 199.237,1.992 Z M201.682,8.721 L199.251,5.333 L198.162,5.333 L198.162,8.721 L197,8.721 L197,1 L199.445,1 C200.533,1 201.768,1.702 201.768,3.167 C201.768,4.196 201.163,4.849 200.413,5.153 L203.051,8.721 L201.682,8.721 L201.682,8.721 Z" id="Fill-45"></path>
                <polyline id="Fill-46" points="209.212 8.721 206.176 5.103 206.176 8.721 205 8.721 205 1 206.176 1 206.176 4.646 209.226 1 210.58 1 207.374 4.815 210.656 8.721 209.212 8.721"></polyline>
            </g>
        </g>
    </g>
</svg>